<svg width="22" height="22" viewBox="0 0 22 22" fill="none" xmlns="http://www.w3.org/2000/svg">
<path d="M4.40624 18.6771V19.4101C4.18789 19.1882 4.09583 18.9551 4.09583 18.6771V3.32292C4.09583 3.01924 4.1952 2.77795 4.4147 2.55845C4.63913 2.33402 4.87467 2.23958 5.15624 2.23958H13.1414L17.9271 7.02524V18.6771C17.9271 18.9587 17.8326 19.1942 17.6082 19.4186C17.3887 19.6381 17.1474 19.7375 16.8437 19.7375H5.15624C4.87823 19.7375 4.64509 19.6454 4.42322 19.4271H5.15624H16.8437H17.5937V18.6771V7.58542V6.83542H16.8437H13.2625V3.32292V2.57292H12.5125H5.15624H4.40624V3.32292V7.58542V18.6771Z" fill="#1B1C1E" stroke="#1B1C1E" stroke-width="1.5"/>
</svg>
